# xmcd CD database file
#
# Track frame offsets:
#	150
#	15633
#	28860
#	43119
#	57833
#	70935
#	85275
#	99132
#	113108
#	125252
#	138527
#	153746
#	167371
#	181092
#	193553
#	207558
#	220440
#	233713
#	248574
#	263349
#	274529
#	284462
#	299345
#	311449
#	324128
#
# Disc length: 4483 seconds
#
# Revision: 0
# Processed by: cddbd v1.5.2PL0 Copyright (c) Steve Scherf et al.
# Submitted via: CDex 1.70beta2
#
DISCID=5e118119
DTITLE=Bing Crosby - Through The Years Volume One (1950 - 1951)
DYEAR=1950
DGENRE=Jazz
TTITLE0=Autumn Leaves
TTITLE1=I've Never Been In Love Before
TTITLE2=This Is The Time
TTITLE3=Poppa Santa Claus
TTITLE4=Mele Kalikimaka
TTITLE5=If I Were A Bell
TTITLE6=Silver Bells
TTITLE7=Looks Like A Cold, Cold Winter
TTITLE8=A Marshmallow World
TTITLE9=Marrying For Love
TTITLE10=The Best Thing For You
TTITLE11=A Perfect Day
TTITLE12=May The Good Lord Bless And Keep You
TTITLE13=The Girl Friend
TTITLE14=Without A Word Of Warning
TTITLE15=You Gotta Show Me
TTITLE16=Then You've Never Been Blue
TTITLE17=Black Ball Ferry Line
TTITLE18=The Yodelling Ghost
TTITLE19=With My Shillelagh Under My Arm
TTITLE20=St. Patrick's Day Parade
TTITLE21=Sentimental Music
TTITLE22=Silver Moon
TTITLE23=Copacabana
TTITLE24=Quizas, Quizas, Quizas
EXTD=YEAR: 1950
EXTT0=
EXTT1=
EXTT2=
EXTT3=
EXTT4=
EXTT5=
EXTT6=
EXTT7=
EXTT8=
EXTT9=
EXTT10=
EXTT11=
EXTT12=
EXTT13=
EXTT14=
EXTT15=
EXTT16=
EXTT17=
EXTT18=
EXTT19=
EXTT20=
EXTT21=
EXTT22=
EXTT23=
EXTT24=
PLAYORDER=
